<?xml version="1.0" encoding="UTF-8"?>
<!DOCTYPE svg PUBLIC "-//W3C//DTD SVG 1.1//EN" "http://www.w3.org/Graphics/SVG/1.1/DTD/svg11.dtd">
<svg xmlns="http://www.w3.org/2000/svg" version="1.1" width="32px" height="32px" style="shape-rendering:geometricPrecision; text-rendering:geometricPrecision; image-rendering:optimizeQuality; fill-rule:evenodd; clip-rule:evenodd" xmlns:xlink="http://www.w3.org/1999/xlink">
<g><path style="opacity:0.962" fill="#384f98" d="M 11.5,-0.5 C 14.1667,-0.5 16.8333,-0.5 19.5,-0.5C 19.5,0.166667 19.8333,0.5 20.5,0.5C 20.5,1.16667 20.5,1.83333 20.5,2.5C 17.5,2.5 14.5,2.5 11.5,2.5C 11.5,1.5 11.5,0.5 11.5,-0.5 Z"/></g>
<g><path style="opacity:0.988" fill="#02bffa" d="M 10.5,-0.5 C 10.8333,-0.5 11.1667,-0.5 11.5,-0.5C 11.5,0.5 11.5,1.5 11.5,2.5C 11.5,3.83333 11.5,5.16667 11.5,6.5C 6.75896,8.94615 4.42562,12.9462 4.5,18.5C 2.89578,19.287 2.22911,20.6203 2.5,22.5C 1.31271,20.9275 0.312714,19.2608 -0.5,17.5C -0.5,15.8333 -0.5,14.1667 -0.5,12.5C 1.3137,6.67956 4.98036,2.34623 10.5,-0.5 Z"/></g>
<g><path style="opacity:0.976" fill="#03befb" d="M 20.5,0.5 C 25.8865,2.25593 29.2199,5.9226 30.5,11.5C 28.8333,11.5 27.1667,11.5 25.5,11.5C 24.5849,9.24595 23.2516,7.24595 21.5,5.5C 20.8902,4.60895 20.5569,3.60895 20.5,2.5C 20.5,1.83333 20.5,1.16667 20.5,0.5 Z"/></g>
<g><path style="opacity:1" fill="#cff0f9" d="M 11.5,2.5 C 14.5,2.5 17.5,2.5 20.5,2.5C 20.5569,3.60895 20.8902,4.60895 21.5,5.5C 20.0688,6.90254 18.9022,8.5692 18,10.5C 17.51,9.20677 17.3433,7.87344 17.5,6.5C 15.5,6.5 13.5,6.5 11.5,6.5C 11.5,5.16667 11.5,3.83333 11.5,2.5 Z"/></g>
<g><path style="opacity:1" fill="#324c95" d="M 21.5,5.5 C 23.2516,7.24595 24.5849,9.24595 25.5,11.5C 19.8333,11.5 14.1667,11.5 8.5,11.5C 8.23166,14.1194 8.565,16.6194 9.5,19C 16.1583,19.4996 22.825,19.6663 29.5,19.5C 28.9898,22.6743 27.3231,25.0077 24.5,26.5C 20.9009,27.3439 17.2343,27.6773 13.5,27.5C 12.5,25.1667 10.8333,23.5 8.5,22.5C 8.16667,20.1667 6.83333,18.8333 4.5,18.5C 4.42562,12.9462 6.75896,8.94615 11.5,6.5C 13.5,6.5 15.5,6.5 17.5,6.5C 17.3433,7.87344 17.51,9.20677 18,10.5C 18.9022,8.5692 20.0688,6.90254 21.5,5.5 Z"/></g>
<g><path style="opacity:1" fill="#ef3a8f" d="M 25.5,11.5 C 27.1667,11.5 28.8333,11.5 30.5,11.5C 30.5,12.1667 30.8333,12.5 31.5,12.5C 31.5,14.5 31.5,16.5 31.5,18.5C 30.8333,18.8333 30.1667,19.1667 29.5,19.5C 22.825,19.6663 16.1583,19.4996 9.5,19C 8.565,16.6194 8.23166,14.1194 8.5,11.5C 14.1667,11.5 19.8333,11.5 25.5,11.5 Z"/></g>
<g><path style="opacity:1" fill="#ede4ef" d="M 10.5,13.5 C 11.7498,13.5774 12.5831,14.244 13,15.5C 13.9745,13.1224 14.6411,13.4557 15,16.5C 15.4828,15.552 15.6495,14.552 15.5,13.5C 20.0178,13.7417 24.6845,13.9084 29.5,14C 28.8095,15.0674 28.3095,16.2341 28,17.5C 27.9109,14.1514 26.7443,13.6514 24.5,16C 25.1667,16.3333 25.8333,16.6667 26.5,17C 21.4622,16.9548 16.4622,17.1215 11.5,17.5C 10.5713,16.3112 10.238,14.9778 10.5,13.5 Z"/></g>
<g><path style="opacity:1" fill="#ffbe46" d="M 4.5,18.5 C 6.83333,18.8333 8.16667,20.1667 8.5,22.5C 8.5,24.5 7.5,25.5 5.5,25.5C 4.83333,25.1667 4.16667,24.8333 3.5,24.5C 3.16667,24.5 2.83333,24.5 2.5,24.5C 2.5,23.8333 2.5,23.1667 2.5,22.5C 2.22911,20.6203 2.89578,19.287 4.5,18.5 Z"/></g>
<g><path style="opacity:1" fill="#67ce89" d="M 8.5,22.5 C 10.8333,23.5 12.5,25.1667 13.5,27.5C 13.1667,28.1667 12.8333,28.8333 12.5,29.5C 9.57184,29.5651 6.90517,30.2318 4.5,31.5C 3.5,31.5 2.5,31.5 1.5,31.5C 0.975875,29.6943 0.309209,28.0276 -0.5,26.5C -0.5,25.8333 -0.5,25.1667 -0.5,24.5C 0.5,24.5 1.5,24.5 2.5,24.5C 2.83333,24.5 3.16667,24.5 3.5,24.5C 3.38321,26.4835 4.04988,28.1502 5.5,29.5C 5.90591,28.4425 5.90591,27.1092 5.5,25.5C 7.5,25.5 8.5,24.5 8.5,22.5 Z"/></g>
<g><path style="opacity:1" fill="#bae962" d="M 3.5,24.5 C 4.16667,24.8333 4.83333,25.1667 5.5,25.5C 5.90591,27.1092 5.90591,28.4425 5.5,29.5C 4.04988,28.1502 3.38321,26.4835 3.5,24.5 Z"/></g>
<g><path style="opacity:0.89" fill="#02bffb" d="M 24.5,26.5 C 23.9423,27.7899 22.9423,28.6232 21.5,29C 18.3768,30.3509 15.3768,30.5176 12.5,29.5C 12.8333,28.8333 13.1667,28.1667 13.5,27.5C 17.2343,27.6773 20.9009,27.3439 24.5,26.5 Z"/></g>
</svg>
